<?xml version="1.0" standalone="no"?>
<!DOCTYPE svg PUBLIC "-//W3C//DTD SVG 1.1//EN"
  "http://www.w3.org/Graphics/SVG/1.1/DTD/svg11.dtd">
<svg width="177.5mm" height="153.92399597167966mm" viewBox="-88.75 -76.96199798583983 177.5 153.92399597167966" xmlns="http://www.w3.org/2000/svg" version="1.1">
	<title>svgOutput</title>
	<desc>made with tinkercad</desc>
<path d="M 27.63599967956543 -75.96199798583983 L 32.768001556396484 -67.09518432617186 L 33.67043685913086 -65.53600311279295 L 50.85115432739258 -35.85200119018554 L 52.63613510131836 -32.76800155639648 L 57.75145721435547 -23.930000305175778 L 65.53600311279297 -10.480252265930174 L 71.60183715820312 1.1102230246251565e-16 L 87.75 27.899999618530266 L 84.94178771972656 32.76800155639648 L 81.91999816894531 38.006233215332024 L 81.265380859375 39.14100265502929 L 80.41045379638672 40.62300491333007 L 80.21605682373047 40.95999908447265 L 75.49031829833984 49.15200042724608 L 66.03885650634766 65.53600311279295 L 65.53600311279297 66.40769195556639 L 65.34141540527344 66.74500274658202 L 61.45618438720703 73.48000335693358 L 60.07400131225586 75.87599945068358 L 0 75.9190216064453 L -60.005001068115234 75.96199798583983 L -61.44161605834961 73.48000335693358 L -65.53600311279297 66.40624237060545 L -66.03971099853516 65.53600311279295 L -71.92570495605469 55.36692428588866 L -75.52285766601562 49.15200042724608 L -75.83015441894531 48.62107467651366 L -80.26416778564453 40.95999908447265 L -81.91999816894531 38.09905624389648 L -85.00546264648438 32.76800155639648 L -87.75 28.02599906921386 L -71.58250427246094 1.1102230246251565e-16 L -65.53600311279297 -10.48147678375244 L -56.62300109863281 -25.93196487426757 L -52.67946243286133 -32.76800155639648 L -46.0090446472168 -44.3310203552246 L -33.776424407958984 -65.53600311279295 L -32.768001556396484 -67.28408050537108 L -27.78499984741211 -75.92199707031249 L -16.384000778198242 -75.9302291870117 L -8.192000389099121 -75.93614196777342 L 1.192092865393013e-11 -75.94205474853514 L 8.192000389099121 -75.94796752929686 L 16.384000778198242 -75.95388031005858 L 27.63599967956543 -75.96199798583983 M 13.350000381469727 -68.88200378417967 L 13.116000175476074 -68.81099700927733 L 12.901000022888184 -68.6959991455078 L 12.711999893188477 -68.54100036621092 L 12.557999610900879 -68.35199737548827 L 12.442999839782715 -68.13700103759764 L 12.371999740600586 -67.90399932861327 L 12.347999572753906 -67.66100311279295 L 12.355921745300293 -67.58399963378905 L 12.373000144958496 -67.41799926757811 L 12.444000244140625 -67.18499755859374 L 12.559000015258789 -66.97000122070311 L 12.71399974822998 -66.78199768066405 L 12.902000427246094 -66.62699890136717 L 13.118000030517578 -66.51300048828124 L 13.35099983215332 -66.44200134277342 L 13.593999862670898 -66.41799926757811 L 13.836999893188477 -66.44200134277342 L 14.071000099182129 -66.51300048828124 L 14.28600025177002 -66.62799835205077 L 14.473999977111816 -66.78299713134764 L 14.628999710083008 -66.9720001220703 L 14.744000434875488 -67.18699645996092 L 14.814000129699707 -67.4199981689453 L 14.83019733428955 -67.58399963378905 L 14.838000297546387 -67.66300201416014 L 14.814000129699707 -67.90599822998045 L 14.743000030517578 -68.13899993896483 L 14.628000259399414 -68.35399627685545 L 14.472999572753906 -68.54199981689452 L 14.336000442504883 -68.65435791015624 L 14.284000396728516 -68.69699859619139 L 14.069000244140625 -68.81199645996092 L 13.835000038146973 -68.88200378417967 L 13.592000007629395 -68.90599822998045 L 13.350000381469727 -68.88200378417967 M 72.28600311279297 36.46699905395507 L 72.46499633789062 36.63299942016601 L 72.6729965209961 36.761001586914055 L 72.9020004272461 36.84600067138671 L 73.01277160644531 36.86399841308593 L 73.14199829101562 36.884998321533196 L 73.38600158691406 36.87599945068359 L 73.43699645996094 36.86399841308593 L 73.6240005493164 36.81999969482421 L 73.72799682617188 36.772686004638665 L 73.84600067138672 36.719001770019524 L 74.04399871826172 36.57600021362304 L 74.20999908447266 36.39699935913085 L 74.33799743652344 36.18999862670898 L 74.4229965209961 35.96099853515624 L 74.46199798583984 35.72100067138671 L 74.4530029296875 35.47700119018554 L 74.39700317382812 35.24000167846679 L 74.29499816894531 35.01800155639648 L 74.15299987792969 34.81999969482421 L 73.9739990234375 34.653999328613274 L 73.76599884033203 34.52600097656249 L 73.72799682617188 34.51183319091796 L 73.53800201416016 34.44100189208984 L 73.2969970703125 34.40200042724609 L 73.0530014038086 34.410999298095696 L 72.81500244140625 34.46699905395507 L 72.59300231933594 34.56900024414062 L 72.3949966430664 34.71099853515624 L 72.29762268066406 34.81600189208984 L 72.22899627685547 34.88999938964843 L 72.10099792480469 35.097000122070305 L 72.01599884033203 35.32600021362304 L 71.97699737548828 35.56700134277343 L 71.98600006103516 35.81000137329101 L 72.04199981689453 36.04800033569335 L 72.14399719238281 36.26900100708007 L 72.28600311279297 36.46699905395507 M 58.20600128173828 59.42399978637694 L 58.16699981689453 59.66500091552733 L 58.17599868774414 59.9090003967285 L 58.231998443603516 60.14599990844725 L 58.33300018310547 60.368000030517564 L 58.47600173950195 60.56600189208983 L 58.654998779296875 60.7319984436035 L 58.862998962402344 60.86000061035155 L 59.090999603271484 60.944999694824205 L 59.332000732421875 60.984001159667955 L 59.391998291015625 60.98178863525389 L 59.57600021362305 60.97499847412108 L 59.81399917602539 60.918998718261705 L 60.0359992980957 60.81700134277342 L 60.233001708984375 60.67399978637694 L 60.400001525878906 60.495998382568345 L 60.52799987792969 60.287998199462876 L 60.612998962402344 60.060001373291 L 60.652000427246094 59.81900024414061 L 60.643001556396484 59.57500076293944 L 60.59975814819336 59.39199829101561 L 60.58700180053711 59.33800125122069 L 60.48500061035156 59.116001129150376 L 60.34199905395508 58.918998718261705 L 60.16400146484375 58.75299835205077 L 59.95600128173828 58.624999999999986 L 59.72700119018555 58.54000091552733 L 59.486000061035156 58.50099945068358 L 59.24300003051758 58.50999832153319 L 59.005001068115234 58.56600189208983 L 58.78300094604492 58.66699981689452 L 58.584999084472656 58.810001373291 L 58.41899871826172 58.98799896240233 L 58.29100036621094 59.1959991455078 L 58.21792984008789 59.39199829101561 L 58.20600128173828 59.42399978637694 M -59.624000549316406 58.59299850463866 L -59.858001708984375 58.664001464843736 L -60.073001861572266 58.77899932861327 L -60.26100158691406 58.93399810791014 L -60.41600036621094 59.122001647949205 L -60.53099822998047 59.33800125122069 L -60.547454833984375 59.39199829101561 L -60.60200119018555 59.5709991455078 L -60.625 59.813999176025376 L -60.60100173950195 60.05599975585936 L -60.529998779296875 60.29000091552733 L -60.415000915527344 60.50500106811522 L -60.2599983215332 60.69300079345702 L -60.07099914550781 60.8470001220703 L -59.85599899291992 60.962001800537095 L -59.62200164794922 61.03300094604491 L -59.391998291015625 61.05580902099608 L -59.380001068115234 61.056999206542955 L -59.137001037597656 61.032001495361314 L -58.90299987792969 60.962001800537095 L -58.6879997253418 60.846000671386705 L -58.5 60.69200134277342 L -58.345001220703125 60.50299835205077 L -58.22999954223633 60.287998199462876 L -58.159000396728516 60.05400085449217 L -58.13600158691406 59.81200027465819 L -58.15999984741211 59.56900024414061 L -58.21393585205078 59.39199829101561 L -58.23099899291992 59.335998535156236 L -58.34600067138672 59.120998382568345 L -58.500999450683594 58.93299865722655 L -58.689998626708984 58.77799987792967 L -58.904998779296875 58.662998199462876 L -59.13800048828125 58.59299850463866 L -59.38100051879883 58.56900024414061 L -59.624000549316406 58.59299850463866 M -73.59300231933594 34.557998657226555 L -73.72799682617188 34.59896087646484 L -73.8270034790039 34.62900161743163 L -74.04199981689453 34.743999481201165 L -74.2300033569336 34.89899826049804 L -74.38500213623047 35.088001251220696 L -74.5 35.30300140380859 L -74.57099914550781 35.535999298095696 L -74.59400177001953 35.778999328613274 L -74.56999969482422 36.02199935913085 L -74.4990005493164 36.25500106811523 L -74.38400268554688 36.47000122070312 L -74.22899627685547 36.658000946044915 L -74.04000091552734 36.81299972534179 L -73.82499694824219 36.92800140380859 L -73.72799682617188 36.95701599121093 L -73.59100341796875 36.998001098632805 L -73.3489990234375 37.02199935913085 L -73.10600280761719 36.998001098632805 L -72.87200164794922 36.92699813842773 L -72.75421905517578 36.86399841308593 L -72.65699768066406 36.812000274658196 L -72.46900177001953 36.65700149536132 L -72.31400299072266 36.467998504638665 L -72.1989974975586 36.252998352050774 L -72.12799835205078 36.020000457763665 L -72.1050033569336 35.77700042724609 L -72.12899780273438 35.5349998474121 L -72.19999694824219 35.30099868774413 L -72.31500244140625 35.08599853515624 L -72.47000122070312 34.897998809814446 L -72.65899658203125 34.74300003051757 L -72.8740005493164 34.62900161743163 L -73.10800170898438 34.557998657226555 L -73.3499984741211 34.53400039672851 L -73.59300231933594 34.557998657226555 M 32.29399871826172 -65.59400177001952 L 32.19345474243164 -65.53600311279295 L 24.5 -61.09799957275389 L 37 -39.46599960327148 L 44.79399871826172 -43.9620018005371 L 32.3275146484375 -65.53600311279295 L 32.29399871826172 -65.59400177001952 M 21.30500030517578 -32.76800155639648 L 21.30500030517578 -22.77499961853027 L 24.78700065612793 -22.77499961853027 L 24.78700065612793 -32.76800155639648 L 24.78700065612793 -35.85200119018554 L 21.30500030517578 -35.85200119018554 L 21.30500030517578 -32.76800155639648 M 56.904998779296875 -23.930000305175778 L 50.165000915527344 -23.930000305175778 L 50.165000915527344 1.1102230246251565e-16 L 50.165000915527344 25.385999679565423 L 56.904998779296875 25.385999679565423 L 56.904998779296875 1.1102230246251565e-16 L 56.904998779296875 -23.930000305175778 M 27.750999450683594 -9.682999610900877 L 27.750999450683594 1.1102230246251565e-16 L 27.750999450683594 19.819999694824215 L 31.232999801635742 19.819999694824215 L 31.232999801635742 1.1102230246251565e-16 L 31.232999801635742 -9.682999610900877 L 27.750999450683594 -9.682999610900877 M 17.750999450683594 -9.682999610900877 L 17.750999450683594 1.1102230246251565e-16 L 17.750999450683594 19.819999694824215 L 21.232999801635742 19.819999694824215 L 21.232999801635742 1.1102230246251565e-16 L 21.232999801635742 -9.682999610900877 L 17.750999450683594 -9.682999610900877 M 11.232999801635742 -9.682999610900877 L 7.750999927520752 -9.682999610900877 L 7.750999927520752 1.1102230246251565e-16 L 7.750999927520752 19.819999694824215 L 11.232999801635742 19.819999694824215 L 11.232999801635742 1.1102230246251565e-16 L 11.232999801635742 -9.682999610900877 M 14.788000106811523 -22.77499961853027 L 14.788000106811523 -32.76800155639648 L 14.788000106811523 -35.85200119018554 L 11.305000305175781 -35.85200119018554 L 11.305000305175781 -32.76800155639648 L 11.305000305175781 -22.77499961853027 L 14.788000106811523 -22.77499961853027 M 42.12300109863281 40.89599990844726 L 42.236000061035156 39.73899841308593 L 42.12200164794922 38.58300018310546 L 41.78300094604492 37.47100067138671 L 41.23400115966797 36.4469985961914 L 40.49599838256836 35.548999786376946 L 39.59600067138672 34.812000274658196 L 38.56999969482422 34.26499938964843 L 37.457000732421875 33.92800140380859 L 36.29899978637695 33.81499862670898 L 35.141998291015625 33.930000305175774 L 34.02899932861328 34.26800155639648 L 33.00299835205078 34.81700134277343 L 32.768001556396484 35.01012802124023 L 32.23137283325195 35.45114517211913 L 31.92416763305664 35.82575607299804 L 30.81999969482422 37.47900009155273 L 30.482999801635742 38.59099960327148 L 30.3700008392334 39.748001098632805 L 30.485000610351562 40.903999328613274 L 30.822999954223633 42.015998840332024 L 31.371999740600586 43.04100036621093 L 32.111000061035156 43.93799972534179 L 32.768001556396484 44.47660827636718 L 33.0099983215332 44.67499923706054 L 34.0369987487793 45.222000122070305 L 35.150001525878906 45.55899810791015 L 36.30699920654297 45.67200088500976 L 37.46500015258789 45.55699920654296 L 38.577999114990234 45.219001770019524 L 39.60300064086914 44.669998168945305 L 40.50199890136719 43.932998657226555 L 41.23899841308594 43.03400039672851 L 41.7859992980957 42.00799942016601 L 42.10360336303711 40.95999908447265 L 42.12300109863281 40.89599990844726 M 52.21699905395508 61.701999664306626 L 49.152000427246094 61.701999664306626 L 32.768001556396484 61.701999664306626 L 27.216999053955078 61.701999664306626 L 27.216999053955078 65.53600311279295 L 27.216999053955078 66.74500274658202 L 27.216999053955078 70.6949996948242 L 52.21699905395508 70.6949996948242 L 52.21699905395508 66.74500274658202 L 52.21699905395508 65.53600311279295 L 52.21699905395508 61.701999664306626 M 8.309000015258789 48.894001007080064 L 8.309000015258789 35.81700134277343 L 4.827000141143799 35.81700134277343 L 4.827000141143799 48.894001007080064 L 8.309000015258789 48.894001007080064 M 24.79599952697754 73.48000335693358 L 24.79599952697754 66.74500274658202 L 0 66.74500274658202 L -24.56100082397461 66.74500274658202 L -24.56100082397461 73.48000335693358 L 0 73.48000335693358 L 24.79599952697754 73.48000335693358 M -14.336000442504883 -68.82227325439452 L -14.4399995803833 -68.81199645996092 L -14.67300033569336 -68.74099731445311 L -14.887999534606934 -68.62599945068358 L -15.07699966430664 -68.4710006713867 L -15.230999946594238 -68.28199768066405 L -15.345999717712402 -68.06700134277342 L -15.416999816894531 -67.83399963378905 L -15.440999984741211 -67.59100341796874 L -15.440308570861816 -67.58399963378905 L -15.416999816894531 -67.34799957275389 L -15.345999717712402 -67.11499786376952 L -15.229999542236328 -66.90000152587889 L -15.074999809265137 -66.71199798583983 L -14.88700008392334 -66.55699920654295 L -14.670999526977539 -66.44200134277342 L -14.437999725341797 -66.3720016479492 L -14.194999694824219 -66.34799957275389 L -13.95199966430664 -66.3720016479492 L -13.718999862670898 -66.44300079345702 L -13.503000259399414 -66.55799865722655 L -13.3149995803833 -66.71299743652342 L -13.15999984741211 -66.90200042724608 L -13.045000076293945 -67.1169967651367 L -12.975000381469727 -67.34999847412108 L -12.951889038085938 -67.58399963378905 L -12.951000213623047 -67.59300231933592 L -12.975000381469727 -67.83599853515624 L -13.045999526977539 -68.06900024414061 L -13.16100025177002 -68.28399658203124 L -13.315999984741211 -68.4720001220703 L -13.505000114440918 -68.62699890136717 L -13.720000267028809 -68.74099731445311 L -13.954000473022461 -68.81199645996092 L -14.196999549865723 -68.83599853515624 L -14.336000442504883 -68.82227325439452 M -32.85200119018555 -65.58399963378905 L -32.879737854003906 -65.53600311279295 L -45.35200119018555 -43.95199966430663 L -37.55799865722656 -39.456001281738274 L -25.058000564575195 -61.08800125122069 L -32.76879119873047 -65.53600311279295 L -32.85200119018555 -65.58399963378905 M -10.89900016784668 -30.85700035095214 L -14.380999565124512 -30.85700035095214 L -14.380999565124512 1.1102230246251565e-16 L -14.380999565124512 17.427000045776364 L -10.89900016784668 17.427000045776364 L -10.89900016784668 1.1102230246251565e-16 L -10.89900016784668 -30.85700035095214 M -24.72100067138672 1.1102230246251565e-16 L -24.72100067138672 17.427000045776364 L -21.23900032043457 17.427000045776364 L -21.23900032043457 1.1102230246251565e-16 L -21.23900032043457 -30.85700035095214 L -24.72100067138672 -30.85700035095214 L -24.72100067138672 -23.930000305175778 L -24.72100067138672 1.1102230246251565e-16 M -49.882999420166016 -23.930000305175778 L -56.62300109863281 -23.930000305175778 L -56.62300109863281 1.1102230246251565e-16 L -56.62300109863281 25.385999679565423 L -49.882999420166016 25.385999679565423 L -49.882999420166016 1.1102230246251565e-16 L -49.882999420166016 -23.930000305175778 M -1.690999984741211 48.894001007080064 L -1.690999984741211 35.81700134277343 L -5.172999858856201 35.81700134277343 L -5.172999858856201 48.894001007080064 L -1.690999984741211 48.894001007080064 M -27.781999588012695 61.701999664306626 L -32.768001556396484 61.701999664306626 L -49.152000427246094 61.701999664306626 L -52.78099822998047 61.701999664306626 L -52.78099822998047 65.53600311279295 L -52.78099822998047 70.6949996948242 L -27.781999588012695 70.6949996948242 L -27.781999588012695 65.53600311279295 L -27.781999588012695 61.701999664306626 z" fill="none" stroke="rgb(255,0,0)" stroke-width="0.1mm" />
</svg>