<?xml version="1.0" standalone="no"?>
<!DOCTYPE svg PUBLIC "-//W3C//DTD SVG 1.1//EN"
  "http://www.w3.org/Graphics/SVG/1.1/DTD/svg11.dtd">
<svg width="177.5mm" height="153.92399597167966mm" viewBox="-88.75 -76.96199798583983 177.5 153.92399597167966" xmlns="http://www.w3.org/2000/svg" version="1.1">
	<title>svgOutput</title>
	<desc>made with tinkercad</desc>
<path d="M 60.07400131225586 75.87599945068358 L 48.188011169433594 75.88451385498045 L 31.515653610229492 75.89645385742186 L 0 75.9190216064453 L -31.810121536254883 75.94181060791014 L -48.48615264892578 75.95375061035155 L -60.005001068115234 75.96199798583983 L -87.75 28.02599906921386 L -71.58250427246094 1.1102230246251565e-16 L -65.53600311279297 -10.48147678375244 L -52.67946243286133 -32.76800155639648 L -43.79838180541992 -48.16315841674803 L -35.47221374511719 -62.59638595581053 L -33.776424407958984 -65.53600311279295 L -27.78499984741211 -75.92199707031249 L -17.118999481201172 -75.92969512939452 L 1.192092865393013e-11 -75.94205474853514 L 27.63599967956543 -75.96199798583983 L 28.27266502380371 -74.86199951171874 L 33.67043685913086 -65.53600311279295 L 35.422298431396484 -62.509216308593736 L 43.77070236206055 -48.085258483886705 L 52.63613510131836 -32.76800155639648 L 65.53600311279297 -10.480252265930174 L 71.60183715820312 1.1102230246251565e-16 L 87.75 27.899999618530266 L 60.07400131225586 75.87599945068358 M 40.191001892089844 -46.0250015258789 L 31.867000579833984 -60.46300125122069 L 29.22599983215332 -58.94300079345702 L 37.54999923706055 -44.50500106811523 L 40.191001892089844 -46.0250015258789 M 9.68137264251709 -16.97549247741699 L 9.708392143249512 -17.24990844726562 L 9.722999572753906 -17.40200042724609 L 9.531000137329102 -19.350999832153317 L 8.961999893188477 -21.225000381469723 L 8.038000106811523 -22.95299911499023 L 6.795000076293945 -24.46699905395507 L 5.2789998054504395 -25.708999633789055 L 3.549999952316284 -26.631999969482415 L 1.6749999523162842 -27.20100021362304 L -3.8805106860034105e-14 -27.365839004516594 L -0.2759999930858612 -27.392999649047844 L -2.2269999980926514 -27.20100021362304 L -4.103000164031982 -26.631999969482415 L -5.831999778747559 -25.708999633789055 L -7.3470001220703125 -24.46699905395507 L -8.590999603271484 -22.95299911499023 L -9.515000343322754 -21.225000381469723 L -10.083999633789062 -19.350999832153317 L -10.276000022888184 -17.40200042724609 L -10.175765991210938 -16.38400077819824 L -10.083999633789062 -15.451999664306637 L -9.515000343322754 -13.578000068664547 L -8.590999603271484 -11.850999832153319 L -7.3470001220703125 -10.336999893188475 L -5.831999778747559 -9.093999862670897 L -4.103000164031982 -8.170999526977537 L -2.2269999980926514 -7.602000236511229 L -0.2759999930858612 -7.409999847412108 L 9.701276715008526e-15 -7.437161445617674 L 1.6749999523162842 -7.602000236511229 L 3.549999952316284 -8.170999526977537 L 5.2789998054504395 -9.093999862670897 L 6.795000076293945 -10.336999893188475 L 8.038000106811523 -11.850999832153319 L 8.961999893188477 -13.578000068664547 L 9.531000137329102 -15.451999664306637 L 9.622990608215332 -16.38400077819824 L 9.68137264251709 -16.97549247741699 M 16.381000518798828 -74.86199951171874 L 0 -74.86199951171874 L -17.118999481201172 -74.86199951171874 L -17.118999481201172 -65.53600311279295 L -17.118999481201172 -51.99060821533202 L -17.118999481201172 -32.76800155639648 L -17.118999481201172 -29.050537109374993 L -17.118999481201172 -28.364999771118157 L -11.355433464050293 -28.364999771118157 L -10.152937889099121 -28.364999771118157 L 0 -28.364999771118157 L 16.381000518798828 -28.364999771118157 L 16.381000518798828 -32.76800155639648 L 16.381000518798828 -51.55019378662108 L 16.381000518798828 -65.53600311279295 L 16.381000518798828 -74.86199951171874 M 48.19900131225586 64.72799682617186 L 31.523000717163086 64.71199798583983 L 31.520999908447266 67.75700378417967 L 48.19599914550781 67.7740020751953 L 48.19900131225586 64.72799682617186 M -31.905000686645508 -60.534999847412095 L -40.25600051879883 -46.11399841308593 L -37.61800003051758 -44.588001251220696 L -29.266000747680664 -59.00999832153319 L -31.905000686645508 -60.534999847412095 M -48.474998474121094 64.63400268554686 L -48.47800064086914 67.67900085449217 L -31.802000045776367 67.6959991455078 L -31.798999786376953 64.65000152587889 L -48.474998474121094 64.63400268554686 z" fill="none" stroke="rgb(255,0,0)" stroke-width="0.1mm" />
</svg>